<?xml version="1.0" encoding="UTF-8"?> 
<svg xmlns="http://www.w3.org/2000/svg" width="51" height="50" viewBox="0 0 51 50" fill="none"> 
<path 
    fill-rule="evenodd"
    clip-rule="evenodd"
    d="M7.24719 21.7648C7.1864 21.8239 7.24719 21.8831 7.30798 21.8831L15.0287 21.8239C15.1502 21.8239 15.211 21.7648 15.2718 21.7057L15.6366 21.1735C15.6974 21.1143 15.6366 21.0552 15.5758 21.0552H7.91591C7.79433 21.0552 7.73353 21.1143 7.67274 21.1735L7.24719 21.7648ZM4.02518 23.657C3.96439 23.7162 4.02518 23.7753 4.08597 23.7753H14.2384C14.2991 23.7753 14.4207 23.7162 14.4207 23.657L14.6031 23.0657C14.6031 23.0066 14.5423 22.9475 14.4815 22.9475H4.6939C4.57231 22.9475 4.51152 23.0066 4.45073 23.0657L4.02518 23.657ZM9.19256 25.6084C9.13177 25.6676 9.19256 25.7267 9.25335 25.7267L13.9344 25.6676C13.9952 25.6676 14.056 25.6084 14.056 25.5493L14.1168 25.0762C14.1168 25.0171 14.056 24.958 13.9952 24.958H9.73969C9.61811 24.958 9.55731 25.0171 9.49653 25.0762L9.19256 25.6084ZM27.9167 22.3561L31.5035 21.4691C31.7466 21.41 31.8074 21.3509 31.7466 21.1143C31.1995 19.8726 30.4092 18.8673 29.2542 18.1577C27.552 17.0342 25.6066 16.7977 23.6004 17.1525C21.1079 17.5664 19.1018 18.8082 17.582 20.7595C16.1837 22.5335 15.4542 24.6032 15.7582 26.8502C16.0013 28.7424 16.9132 30.2799 18.4938 31.4625C20.196 32.7043 22.1414 33.1183 24.2692 32.8226C26.8224 32.4678 28.8286 31.226 30.3484 29.2746C30.6809 28.8703 30.9637 28.4384 31.2016 27.9859C31.5611 29.2232 32.2808 30.2944 33.3273 31.1669C34.8471 32.4087 36.6101 32.9409 38.5554 33C38.7504 32.9789 38.953 32.9654 39.1634 32.9513C39.5435 32.9258 39.9487 32.8987 40.3792 32.8226C42.3246 32.4087 44.0876 31.5808 45.4858 30.1616C47.4312 28.2103 48.2823 25.9632 47.9175 23.1248C47.6135 21.1143 46.5801 19.5769 44.8779 18.4534C43.0541 17.2116 40.9871 17.0342 38.7986 17.389C36.2453 17.862 34.3607 18.8673 32.7801 20.8778C32.1288 21.6962 31.6349 22.5617 31.3202 23.4796H24.4515C24.1476 23.4796 23.9652 23.7162 23.9044 23.8344C23.6415 24.2948 23.2421 25.1532 22.9424 25.7976C22.8956 25.8982 22.8512 25.9936 22.8101 26.0815C22.6885 26.4363 22.8101 26.7319 23.2357 26.7319H27.3696C27.1264 27.0276 26.944 27.2641 26.7616 27.5007C25.789 28.5651 24.5731 29.0381 23.1141 28.8607C21.4119 28.6242 20.196 27.2641 20.196 25.6084C20.196 23.8936 20.9255 22.5335 22.3846 21.6465C23.6004 20.8778 24.9379 20.7004 26.2753 21.3509C26.7616 21.5283 27.0048 21.7648 27.3088 22.1196C27.5271 22.4381 27.5984 22.423 27.8307 22.3738C27.8571 22.3682 27.8856 22.3622 27.9167 22.3561ZM43.6012 23.8936C43.662 24.1301 43.662 24.3075 43.662 24.6032C43.5404 26.3771 42.6286 27.7372 40.8656 28.5651C39.7713 29.0972 38.5554 29.1564 37.4004 28.6833C35.8806 27.9737 35.0903 26.318 35.455 24.7214C35.9413 22.7701 37.218 21.5283 39.2242 21.1143C41.2911 20.6413 43.2365 21.8239 43.6012 23.8936Z" 
    fill="#301c15" 
/>    
</svg> 