<?xml version="1.0" encoding="UTF-8"?>
<svg xmlns="http://www.w3.org/2000/svg" width="51" height="51" viewBox="0 0 51 51" fill="none"> 
<path 
    fill-rule="evenodd" 
    clip-rule="evenodd" 
    d="M12.0159 10.2002H38.474C39.7586 10.2002 40.7999 11.2416 40.7999 12.5262V38.9842C40.7999 40.2688 39.7586 41.3102 38.474 41.3102H12.0159C10.7313 41.3102 9.68994 40.2688 9.68994 38.9842V12.5262C9.68994 11.2416 10.7313 10.2002 12.0159 10.2002ZM27.493 36.8518V33.4468C28.1218 33.9646 28.8048 34.3532 29.5421 34.612C30.279 34.871 31.0235 35.0006 31.7752 35.0006C32.216 35.0006 32.6008 34.9613 32.9297 34.8833C33.2586 34.8053 33.5331 34.6971 33.7536 34.5588C33.9741 34.4204 34.1384 34.2573 34.2468 34.0694C34.3552 33.8815 34.4094 33.6774 34.4094 33.4576C34.4094 33.1596 34.3227 32.8937 34.1494 32.6594C33.9758 32.4254 33.7391 32.209 33.4392 32.0103C33.1392 31.8116 32.7834 31.62 32.3713 31.4359C31.9595 31.2514 31.5149 31.0632 31.038 30.8719C29.8237 30.3752 28.9187 29.7688 28.3223 29.0523C27.726 28.3357 27.4281 27.4703 27.4281 26.4557C27.4281 25.6612 27.5906 24.9786 27.9158 24.4075C28.2409 23.8364 28.6837 23.3664 29.2439 22.9975C29.804 22.6286 30.4526 22.3573 31.1898 22.1836C31.927 22.0097 32.7074 21.9229 33.5313 21.9229C34.341 21.9229 35.0582 21.9707 35.6833 22.0663C36.3084 22.1623 36.8848 22.3094 37.4125 22.5081V25.6897C37.1522 25.5123 36.8685 25.3563 36.5613 25.2214C36.2542 25.0867 35.938 24.9749 35.6129 24.8863C35.2877 24.7975 34.9643 24.732 34.6427 24.6893C34.321 24.6469 34.0155 24.6256 33.7266 24.6256C33.329 24.6256 32.9677 24.6629 32.6425 24.7374C32.3171 24.8117 32.0427 24.9165 31.8187 25.0512C31.5944 25.1861 31.4211 25.3475 31.2982 25.5354C31.1753 25.7233 31.1139 25.9345 31.1139 26.1685C31.1139 26.4239 31.1826 26.6527 31.3199 26.8549C31.4573 27.057 31.6523 27.2486 31.9053 27.4293C32.1583 27.6104 32.4655 27.7877 32.8268 27.9614C33.1882 28.1353 33.5965 28.3144 34.0518 28.4989C34.6734 28.7542 35.2315 29.0255 35.7267 29.3128C36.2217 29.6003 36.6463 29.9248 37.0004 30.2866C37.3545 30.6484 37.6258 31.0615 37.8135 31.5261C38.0013 31.991 38.0955 32.5319 38.0955 33.149C38.0955 34.0002 37.9309 34.715 37.6023 35.2929C37.2734 35.8711 36.8271 36.3394 36.2632 36.6975C35.6995 37.0559 35.0437 37.313 34.2958 37.469C33.5475 37.6253 32.7581 37.7033 31.927 37.7033C31.0742 37.7033 30.2628 37.6324 29.4931 37.4903C28.7234 37.3486 28.0566 37.1356 27.493 36.8518ZM26.173 24.9732H21.7154V37.4568H18.1843V24.9732H13.7485V22.1694H26.173V24.9732Z" 
    fill="#301c15"></path> 
</svg> 